<svg xmlns="http://www.w3.org/2000/svg" xmlns:xlink="http://www.w3.org/1999/xlink" width="1346.358" height="796.43" viewBox="0 0 1346.358 796.43">
  <defs>
    <linearGradient id="linear-gradient" x1="1" y1="0.5" x2="0" y2="0.5" gradientUnits="objectBoundingBox">
      <stop offset="0" stop-color="#4b4b4d"/>
      <stop offset="1" stop-color="#e6e7e8"/>
    </linearGradient>
    <linearGradient id="linear-gradient-2" y1="0.5" x2="1" y2="0.5" gradientUnits="objectBoundingBox">
      <stop offset="0" stop-color="#606062"/>
      <stop offset="1" stop-color="#e6e7e8"/>
    </linearGradient>
  </defs>
  <g id="logo" transform="translate(-3457.87 -5448.45)">
    <path id="Path_1" data-name="Path 1" d="M4131.05,5448.45a253.466,253.466,0,0,1,179.78,74.47q3.135,3.135,6.17,6.38c-7.67,5.35-15.29,10.8-22.89,16.25a225.772,225.772,0,0,0-163.05-69.31c-125.07,0-226.46,101.39-226.46,226.46a225.444,225.444,0,0,0,42.98,132.74l-16.85,23.82a254.259,254.259,0,0,1,200.34-410.81Zm200.33,97.68a254.252,254.252,0,0,1-380.11,336.35q-3.12-3.12-6.14-6.36c7.78-5.25,15.47-10.61,23.17-15.97a225.777,225.777,0,0,0,162.75,69.01c125.07,0,226.46-101.39,226.46-226.46a225.384,225.384,0,0,0-43.01-132.78q8.43-11.9,16.88-23.79Z" fill="url(#linear-gradient)"/>
    <path id="Path_2" data-name="Path 2" d="M3937.29,5868.49c83.22-55.94,85.46-70.75,203.25-70.75l31.75-45H4071.41l21.47-30.27h100.7l29.5-41.73h-100.7l20.6-28.91h100.37c10.67-15,70.78-99.93,81.45-114.93-97.43,67.71-81.72,69.93-202.44,69.93-45.02,63.64-140.05,198.03-185.07,261.67Z" fill="#09884e" fill-rule="evenodd"/>
    <path id="Path_3" data-name="Path 3" d="M4298.72,5535.02a237.14,237.14,0,0,0-357.66,309.61l9.96-14.07a220.8,220.8,0,0,1,336.15-283.97c.76.76,1.52,1.54,2.28,2.31q6.72-4.8,13.43-9.61c-1.36-1.44-2.75-2.85-4.15-4.26Zm-339.31,331.3q1.95,2.055,3.96,4.05a237.145,237.145,0,0,0,357.65-309.64l-9.97,14.06a220.8,220.8,0,0,1-336.11,284.02c-.64-.65-1.29-1.3-1.93-1.95q-6.8,4.725-13.59,9.45Z" fill="url(#linear-gradient-2)"/>
    <path id="Path_4" data-name="Path 4" d="M3813.42,6223.61h3.16a6.181,6.181,0,0,0,3.1-.78,7.2,7.2,0,0,0,2.43-2.37l1.25-1.89c.72-1.08.96-1.88.74-2.41s-.91-.79-2.06-.79h-3.16a6.385,6.385,0,0,0-3.19.81,7.256,7.256,0,0,0-2.47,2.38l-1.26,1.89c-.7,1.06-.93,1.84-.68,2.37s.96.78,2.13.78Zm-.51-19.65a21.933,21.933,0,0,1,7.8-7.41,23.488,23.488,0,0,1,10.87-2.24h5.47c5.09,0,8.1.91,9.04,2.71s-.03,4.86-2.88,9.16l-16.48,24.83h-11.55l2.19-3.3a22.772,22.772,0,0,1-5.34,2.87,15.543,15.543,0,0,1-5.25.93h-4.17c-3.09,0-4.91-.87-5.41-2.61-.52-1.74.3-4.24,2.44-7.47l2.23-3.37a21.959,21.959,0,0,1,7.64-7.21,19.84,19.84,0,0,1,9.81-2.51h3.17a7.722,7.722,0,0,1,3.91.84,3.2,3.2,0,0,1,1.63,2.47l4.7-7.09c.73-1.11,1.02-1.91.85-2.4s-.82-.73-1.94-.73h-1.96a7.541,7.541,0,0,0-3.24.56,5.641,5.641,0,0,0-2.09,2.01l-11.46-.04Zm23.41,27.05,24.02-36.21h11.14l-3.57,5.17a25.575,25.575,0,0,1,6.84-4.33,19.42,19.42,0,0,1,7.26-1.33c4.31,0,6.67.93,7.09,2.77s-1.05,5.32-4.43,10.41l-15.6,23.52h-11.48l13.91-20.97c1.75-2.64,2.57-4.34,2.48-5.12s-1.24-1.17-3.46-1.17a7.679,7.679,0,0,0-4.5,1.29c-1.24.86-2.82,2.75-4.77,5.68l-13.46,20.29h-11.48Zm105.91-11.06a28.927,28.927,0,0,1-9.62,8.85,26.069,26.069,0,0,1-12.28,2.7h-4.86q-7.95,0-8.96-3.3-1.035-3.315,4.45-11.57l4.96-7.48q5.445-8.205,10.87-11.53a25.037,25.037,0,0,1,13.35-3.32H3945q7.95,0,8.95,3.32c.69,2.21-.8,6.06-4.43,11.53l-3.8,5.72h-22.05l-2.95,4.45c-1.07,1.62-1.5,2.77-1.26,3.43s1.2,1,2.91,1h1.48a8.035,8.035,0,0,0,3.88-.82,10.563,10.563,0,0,0,3.15-2.98h11.34Zm-14.52-11.13h10.78l.84-1.27c1.59-2.41,2.35-4.02,2.23-4.8s-1.08-1.19-2.91-1.19h-1.48a7.9,7.9,0,0,0-4.43,1.15,16.221,16.221,0,0,0-3.96,4.48l-1.07,1.62Zm15.56,22.19,24.02-36.21h11.15l-3.57,5.17a25.575,25.575,0,0,1,6.84-4.33,19.42,19.42,0,0,1,7.26-1.33c4.31,0,6.68.93,7.1,2.77s-1.05,5.32-4.43,10.41l-15.6,23.52h-11.48l13.91-20.97c1.75-2.64,2.58-4.34,2.48-5.12-.07-.79-1.24-1.17-3.46-1.17a7.679,7.679,0,0,0-4.5,1.29c-1.24.86-2.82,2.75-4.77,5.68l-13.46,20.29h-11.48Zm66.18-20.84-3.7,5.57c-1.87,2.82-2.77,4.65-2.68,5.48s.96,1.26,2.63,1.26h1.42a7.319,7.319,0,0,0,4.32-1.27,21.727,21.727,0,0,0,4.59-5.47l3.7-5.57c1.87-2.82,2.77-4.65,2.69-5.51-.08-.84-.97-1.27-2.63-1.27h-1.42a7.285,7.285,0,0,0-4.3,1.27,21.889,21.889,0,0,0-4.62,5.51Zm31.47-15.37-22.48,33.89a61.184,61.184,0,0,1-6.23,8.2,26.6,26.6,0,0,1-5.66,4.48,27.106,27.106,0,0,1-12.81,3.51h-3.93c-4.41,0-7.24-.8-8.47-2.38s-.82-3.91,1.22-7l1.35-2.03h11.06c-.78,1.18-1.07,2-.87,2.47s.93.7,2.21.7H3998a6.831,6.831,0,0,0,4.11-1.23,20.292,20.292,0,0,0,4.16-4.94l3.51-5.3a19.82,19.82,0,0,1-6.2,3.8,21.641,21.641,0,0,1-7.47,1.19q-5.985,0-6.6-3.32t4.09-10.42l4.81-7.26q5.1-7.68,10.39-11.27a19.982,19.982,0,0,1,11.47-3.59c2.3,0,3.98.42,5.03,1.28a3.542,3.542,0,0,1,1.15,3.72l2.99-4.51h11.47Zm13.55-5.99,5.98-9.02h11.69l-5.98,9.02Zm-27.99,42.2,24.02-36.21h11.69l-24.02,36.21Zm21.64,0,24.02-36.21h11.14l-3.57,5.17a25.732,25.732,0,0,1,6.84-4.33,19.42,19.42,0,0,1,7.26-1.33c4.31,0,6.68.93,7.09,2.77.43,1.84-1.05,5.32-4.43,10.41l-15.6,23.52h-11.48l13.91-20.97c1.75-2.64,2.57-4.34,2.48-5.12s-1.24-1.17-3.46-1.17a7.679,7.679,0,0,0-4.5,1.29c-1.24.86-2.82,2.75-4.77,5.68l-13.46,20.29h-11.48Zm81.24-11.06a28.838,28.838,0,0,1-9.62,8.85,26.04,26.04,0,0,1-12.28,2.7h-4.86q-7.95,0-8.97-3.3-1.02-3.315,4.46-11.57l4.96-7.48q5.445-8.205,10.87-11.53a25.048,25.048,0,0,1,13.36-3.32h4.86q7.95,0,8.95,3.32c.69,2.21-.8,6.06-4.43,11.53l-3.79,5.72h-22.05l-2.95,4.45c-1.08,1.62-1.5,2.77-1.27,3.43s1.2,1,2.91,1h1.48a8.008,8.008,0,0,0,3.88-.82,10.687,10.687,0,0,0,3.15-2.98h11.34Zm-14.52-11.13h10.78l.84-1.27c1.6-2.41,2.35-4.02,2.24-4.8s-1.08-1.19-2.91-1.19h-1.48a7.9,7.9,0,0,0-4.43,1.15,16.217,16.217,0,0,0-3.96,4.48l-1.07,1.62Zm54.53,11.13a28.93,28.93,0,0,1-9.62,8.85,26.04,26.04,0,0,1-12.28,2.7h-4.86q-7.95,0-8.96-3.3-1.035-3.315,4.45-11.57l4.96-7.48q5.445-8.205,10.86-11.53a25.048,25.048,0,0,1,13.36-3.32h4.86q7.95,0,8.95,3.32c.69,2.21-.8,6.06-4.43,11.53l-3.79,5.72h-22.05l-2.95,4.45c-1.08,1.62-1.5,2.77-1.27,3.43s1.2,1,2.91,1h1.48a8.035,8.035,0,0,0,3.88-.82,10.566,10.566,0,0,0,3.15-2.98h11.34Zm-14.53-11.13h10.78l.84-1.27c1.59-2.41,2.35-4.02,2.23-4.8s-1.08-1.19-2.91-1.19h-1.48a7.9,7.9,0,0,0-4.43,1.15,16.217,16.217,0,0,0-3.96,4.48l-1.07,1.62Zm15.56,22.19,24.02-36.21h11.14l-3.57,5.17a25.844,25.844,0,0,1,6.31-4.33,15.06,15.06,0,0,1,6.23-1.33c3.64,0,5.56.93,5.74,2.8.19,1.85-1.41,5.32-4.77,10.39l-2.14,3.23h-10.78l1.53-2.3c1.15-1.74,1.7-2.96,1.64-3.64s-.76-1.03-2.12-1.03a5.925,5.925,0,0,0-3.7,1.2,27.338,27.338,0,0,0-4.61,5.78l-13.46,20.29h-11.48Zm63.41-42.2,5.98-9.02h11.69l-5.98,9.02h-11.7Zm-27.99,42.2,24.02-36.21h11.7l-24.02,36.21h-11.69Zm21.64,0,24.02-36.21h11.14l-3.57,5.17a25.735,25.735,0,0,1,6.84-4.33,19.42,19.42,0,0,1,7.26-1.33c4.31,0,6.68.93,7.1,2.77s-1.05,5.32-4.43,10.41l-15.6,23.52h-11.48l13.91-20.97c1.75-2.64,2.58-4.34,2.48-5.12-.07-.79-1.24-1.17-3.46-1.17a7.68,7.68,0,0,0-4.5,1.29c-1.24.86-2.82,2.75-4.77,5.68l-13.46,20.29Zm66.18-20.84-3.7,5.57c-1.87,2.82-2.77,4.65-2.68,5.48s.96,1.26,2.63,1.26h1.42a7.318,7.318,0,0,0,4.32-1.27,21.717,21.717,0,0,0,4.59-5.47l3.7-5.57c1.87-2.82,2.77-4.65,2.69-5.51-.08-.84-.97-1.27-2.63-1.27h-1.42a7.285,7.285,0,0,0-4.3,1.27,21.884,21.884,0,0,0-4.62,5.51Zm31.47-15.37-22.48,33.89a61.184,61.184,0,0,1-6.23,8.2,26.591,26.591,0,0,1-5.66,4.48,27.108,27.108,0,0,1-12.81,3.51H4274c-4.41,0-7.24-.8-8.47-2.38s-.82-3.91,1.22-7l1.35-2.03h11.06c-.78,1.18-1.07,2-.87,2.47s.93.7,2.21.7h1.69a6.83,6.83,0,0,0,4.11-1.23,20.3,20.3,0,0,0,4.16-4.94l3.51-5.3a19.818,19.818,0,0,1-6.2,3.8,21.641,21.641,0,0,1-7.47,1.19q-5.985,0-6.6-3.32-.63-3.315,4.09-10.42l4.81-7.26q5.1-7.68,10.39-11.27a19.981,19.981,0,0,1,11.47-3.59c2.3,0,3.98.42,5.03,1.28a3.542,3.542,0,0,1,1.15,3.72l2.99-4.51h11.47Zm38.22-5.99,5.98-9.02H4381l-5.98,9.02Zm-28,42.2,24.02-36.21h11.69l-24.02,36.21h-11.7Zm21.64,0,24.02-36.21h11.14l-3.57,5.17a25.574,25.574,0,0,1,6.84-4.33,19.42,19.42,0,0,1,7.26-1.33c4.31,0,6.68.93,7.1,2.77s-1.05,5.32-4.43,10.41l-15.6,23.52h-11.48l13.91-20.97c1.75-2.64,2.57-4.34,2.48-5.12-.07-.79-1.24-1.17-3.46-1.17a7.68,7.68,0,0,0-4.5,1.29c-1.24.86-2.82,2.75-4.77,5.68l-13.46,20.29Zm42.28,0,24.02-36.21h11.15l-3.57,5.17a25.735,25.735,0,0,1,6.84-4.33,19.42,19.42,0,0,1,7.26-1.33c4.31,0,6.68.93,7.1,2.77s-1.05,5.32-4.43,10.41l-15.6,23.52h-11.48l13.91-20.97c1.76-2.64,2.58-4.34,2.48-5.12-.07-.79-1.24-1.17-3.46-1.17a7.627,7.627,0,0,0-4.49,1.29c-1.24.86-2.82,2.75-4.77,5.68l-13.46,20.29h-11.48Zm66.13-20.98-3.84,5.79c-2.09,3.15-3.09,5.1-3.02,5.87s.99,1.15,2.72,1.15h1.41a7.183,7.183,0,0,0,4.2-1.14q1.6-1.125,4.76-5.88l3.84-5.79c2.12-3.19,3.15-5.17,3.07-5.92s-.97-1.14-2.68-1.14h-1.41a7.233,7.233,0,0,0-4.27,1.17q-1.65,1.17-4.78,5.88Zm-11.19-.86q5.46-8.22,10.87-11.54a25.11,25.11,0,0,1,13.37-3.32h4.84c5.31,0,8.28,1.1,8.96,3.32s-.8,6.06-4.44,11.54l-4.95,7.47q-5.475,8.265-10.89,11.57a25.239,25.239,0,0,1-13.35,3.3h-4.84c-5.31,0-8.28-1.1-8.98-3.3s.8-6.06,4.45-11.57Zm46.65-14.37h12.41l-11.69,27.28,24.81-27.28h12.37l-34.65,36.21h-17.13l13.88-36.21Zm37.89,28.81h3.16a6.18,6.18,0,0,0,3.1-.78,7.2,7.2,0,0,0,2.43-2.37l1.25-1.89c.72-1.08.96-1.88.74-2.41s-.91-.79-2.06-.79h-3.16a6.385,6.385,0,0,0-3.19.81,7.259,7.259,0,0,0-2.47,2.38l-1.26,1.89c-.7,1.06-.93,1.84-.68,2.37s.96.78,2.13.78Zm-.51-19.65a21.856,21.856,0,0,1,7.8-7.41,23.488,23.488,0,0,1,10.87-2.24h5.47c5.09,0,8.1.91,9.04,2.71s-.03,4.86-2.88,9.16l-16.48,24.83h-11.55l2.19-3.3a22.775,22.775,0,0,1-5.34,2.87,15.545,15.545,0,0,1-5.25.93h-4.17c-3.09,0-4.91-.87-5.41-2.61-.52-1.74.3-4.24,2.44-7.47l2.24-3.37a21.955,21.955,0,0,1,7.64-7.21,19.84,19.84,0,0,1,9.81-2.51h3.17a7.723,7.723,0,0,1,3.91.84,3.2,3.2,0,0,1,1.63,2.47l4.7-7.09c.73-1.11,1.02-1.91.85-2.4s-.82-.73-1.94-.73H4555a7.542,7.542,0,0,0-3.24.56,5.638,5.638,0,0,0-2.09,2.01l-11.46-.04Zm34.54,27.54a10.787,10.787,0,0,1-4.91-.89,3.294,3.294,0,0,1-1.88-2.76,6.448,6.448,0,0,1,.58-3.06,33.145,33.145,0,0,1,2.93-5.07l1.3-1.96,9.67-14.57h-4.16l5.56-8.39H4586l4.63-6.97h11.48l-4.63,6.97h15.36l-5.56,8.39h-15.36l-9.8,14.78c-1.46,2.2-2.14,3.59-2.04,4.19s.89.89,2.38.89a6.47,6.47,0,0,0,3.39-.78,10.417,10.417,0,0,0,2.81-3.1l2-3.02h9.58l-2.71,4.09a27.639,27.639,0,0,1-8.36,8.54,19.508,19.508,0,0,1-10.28,2.73h-6.12Zm52.8-42.69,5.98-9.02h11.7l-5.98,9.02Zm-27.99,42.2,24.02-36.21h11.7l-24.02,36.21h-11.69Zm45.49-20.98-3.84,5.79c-2.09,3.15-3.09,5.1-3.02,5.87s.99,1.15,2.72,1.15h1.41a7.161,7.161,0,0,0,4.2-1.14q1.6-1.125,4.76-5.88l3.84-5.79c2.12-3.19,3.15-5.17,3.07-5.92s-.97-1.14-2.69-1.14h-1.41a7.233,7.233,0,0,0-4.27,1.17q-1.65,1.17-4.78,5.88Zm-11.19-.86q5.46-8.22,10.87-11.54a25.11,25.11,0,0,1,13.37-3.32h4.83c5.31,0,8.28,1.1,8.96,3.32s-.8,6.06-4.44,11.54l-4.95,7.47q-5.475,8.265-10.89,11.57a25.239,25.239,0,0,1-13.35,3.3h-4.84c-5.31,0-8.28-1.1-8.98-3.3s.8-6.06,4.46-11.57l4.95-7.47Zm27.41,21.84,24.02-36.21h11.15l-3.57,5.17a25.735,25.735,0,0,1,6.84-4.33,19.42,19.42,0,0,1,7.26-1.33c4.31,0,6.68.93,7.1,2.77s-1.05,5.32-4.43,10.41l-15.6,23.52h-11.48l13.91-20.97c1.76-2.64,2.58-4.34,2.48-5.12-.07-.79-1.24-1.17-3.46-1.17a7.68,7.68,0,0,0-4.5,1.29c-1.24.86-2.82,2.75-4.77,5.68l-13.46,20.29h-11.48Z" fill="#606062"/>
    <path id="Path_5" data-name="Path 5" d="M4303.83,6037.09h62.35l-.25,87.21h3.68l60.54-87.21h36.19l-82.26,116.81h-61.85l.02-87.21h-3.86l-60.63,87.21h-36.19l82.26-116.81Zm-372.34,50.61h81.31c-1.22,1.87-1.95,2.95-2.09,3.15q-17.43,24.75-27.52,37.24-16.26,20.175-40.11,24.46a191.032,191.032,0,0,1-22.28,2.45c-8.04.43-19.94.63-35.79.63q-30.075,0-41.38-1.63c-7.56-1.07-12.63-3.24-15.17-6.47-1.77-2.22-2.29-5.08-1.59-8.56.66-3.47,2.71-8.08,6.02-13.78q4.605-7.965,21.14-31.46c7.5-10.65,13.47-18.71,17.82-24.1a137.483,137.483,0,0,1,13.56-14.54q14.61-13.53,33.03-16.43,20.16-3.165,57.35-3.15,22.05,0,34.09,1.1,12.06,1.095,18.51,3.68,10.515,4.155,3.5,18.07-3.435,6.87-11.92,19h-35.55a44.661,44.661,0,0,0,4.03-6.6,2.928,2.928,0,0,0-.09-2.89c-1-1.39-4.56-2.27-10.64-2.62-5.76-.33-14.28-.5-25.62-.5-12.29,0-21.29.3-26.96.85-5.67.58-10.02,1.63-13.02,3.15a34.723,34.723,0,0,0-9.43,7.79,229.553,229.553,0,0,0-14.08,18.54q-10.395,14.76-13.47,20.58c-2.04,3.89-2.69,6.63-1.83,8.2.83,1.55,2.69,2.48,5.58,2.77,2.89.33,12.48.59,28.84.82q24.33-.165,29.78-.46a38.933,38.933,0,0,0,9.45-1.58,17.36,17.36,0,0,0,6.17-3.62,43.967,43.967,0,0,0,6.41-7.56c.37-.53,1.13-1.6,2.31-3.24h-46.79l16.4-23.29Zm318.64-50.54h37.21l-82.16,116.65h-37.2l34.76-49.35,38.49-16.77h-26.68l35.59-50.53Zm468.83,28.65q-28.335,0-35.09,1.46a29.375,29.375,0,0,0-14.04,7.67q-6.255,5.955-18.71,23.67c-5.04,7.16-8.29,12.31-9.81,15.5-2.76,5.95-.86,9.35,5.74,10.22q7.215,1,30.17,1.02c14.3,0,24.02-.25,29.1-.76a37.1,37.1,0,0,0,12.93-3.44,33.12,33.12,0,0,0,9.18-7.07,151.613,151.613,0,0,0,11.88-15.29q8.88-12.615,12.19-18.5c2.19-3.94,3.26-6.92,3.17-8.91-.09-2.51-2.11-4.09-6.02-4.67q-5.88-.93-30.68-.91Zm21.24-30.29q37.8,0,50.67,1.87,18.5,2.745,11.4,19.41-4.935,11.475-24.13,38.73-19.26,27.36-30.51,38.85-16.365,16.635-38.74,19.41-15.51,1.89-52.94,1.86-38.145,0-51.02-1.86-18.51-2.76-11.4-19.41,4.935-11.475,24.68-39.52,18.78-26.67,29.96-38.07,16.365-16.635,38.74-19.41,15.42-1.89,53.29-1.87Zm-1282.33,173.01c65.68-44.15,67.46-55.84,160.43-55.84l25.06-35.52h-79.63l16.95-23.89h79.48l23.29-32.94h-79.48l16.26-22.82h79.22c8.43-11.84,55.86-78.88,64.3-90.72-76.9,53.44-64.51,55.2-159.79,55.2-35.54,50.23-110.54,156.3-146.08,206.53Zm1024.76-171.44h62.33l-.24,87.21h3.67l60.56-87.21h36.19l-82.26,116.81h-61.84l.01-87.21h-3.85l-60.64,87.21h-36.19l82.26-116.81Zm-765.22,0h62.33l-.24,87.21h3.67l60.54-87.21h36.2l-82.26,116.81H3735.8l.01-87.21h-3.85l-60.63,87.21h-36.19l82.26-116.81Zm380.46,50.61h116.61l-51.93,23.39q-7.56,10.275-12.98,17-16.26,20.175-40.11,24.46a191.275,191.275,0,0,1-22.28,2.45c-8.04.43-19.94.63-35.79.63-20.06,0-33.82-.55-41.37-1.63-7.57-1.07-12.64-3.24-15.17-6.47q-2.655-3.33-1.59-8.56c.66-3.47,2.71-8.08,6.02-13.78q4.605-7.965,21.14-31.46c7.5-10.65,13.47-18.71,17.83-24.1a136.5,136.5,0,0,1,13.57-14.54q14.595-13.53,33.02-16.43,20.175-3.165,57.35-3.15c14.71,0,26.06.37,34.11,1.1q12.045,1.095,18.51,3.68,10.5,4.155,3.5,18.07a171.248,171.248,0,0,1-11.92,19h-35.55a44.607,44.607,0,0,0,4.03-6.6,2.953,2.953,0,0,0-.09-2.89c-1-1.39-4.56-2.27-10.65-2.62-5.75-.33-14.26-.5-25.62-.5-12.29,0-21.28.3-26.96.85-5.66.58-10.02,1.63-13.01,3.15a34.723,34.723,0,0,0-9.43,7.79,229.072,229.072,0,0,0-14.09,18.54q-10.395,14.76-13.46,20.58c-2.04,3.89-2.69,6.63-1.84,8.2.83,1.55,2.69,2.48,5.57,2.77,2.89.33,12.49.59,28.85.82q24.33-.165,29.78-.46a38.94,38.94,0,0,0,9.46-1.58,17.447,17.447,0,0,0,6.17-3.62,43.969,43.969,0,0,0,6.4-7.56c.37-.53,1.13-1.6,2.31-3.24h-46.79l16.4-23.29Z" fill="#09884e" fill-rule="evenodd"/>
    <path id="Path_6" data-name="Path 6" d="M4362.56,5448.46a22.972,22.972,0,0,1,11.21,2.93,21.045,21.045,0,0,1,8.44,8.37,22.8,22.8,0,0,1,.06,22.75,21.62,21.62,0,0,1-8.39,8.39,22.792,22.792,0,0,1-22.64,0,21.644,21.644,0,0,1-8.4-8.39,22.8,22.8,0,0,1,.06-22.75,21.045,21.045,0,0,1,8.44-8.37,23.079,23.079,0,0,1,11.21-2.93Zm.02,4.5a18.527,18.527,0,0,0-8.99,2.34,17.046,17.046,0,0,0-6.78,6.72,18.237,18.237,0,0,0-.06,18.26,17.309,17.309,0,0,0,6.74,6.76,18.2,18.2,0,0,0,18.17,0,17.276,17.276,0,0,0,6.75-6.76,18.2,18.2,0,0,0-.05-18.26,16.864,16.864,0,0,0-6.78-6.72,18.677,18.677,0,0,0-9-2.34Zm-10.29,30.38v-24.06h4.88c4.57,0,7.15.02,7.7.06a9.478,9.478,0,0,1,3.78.96,6.025,6.025,0,0,1,2.25,2.31,6.768,6.768,0,0,1,.9,3.44,6.382,6.382,0,0,1-1.7,4.46,7.812,7.812,0,0,1-4.77,2.3,6.225,6.225,0,0,1,1.69.9,12.678,12.678,0,0,1,1.63,1.84c.18.24.77,1.22,1.78,2.94l2.82,4.85h-6.07l-2-3.92c-1.35-2.62-2.46-4.28-3.34-4.96a5.373,5.373,0,0,0-3.36-1.02h-1.27v9.9h-4.92Zm4.92-13.73h1.98a23.636,23.636,0,0,0,5.24-.33,3.036,3.036,0,0,0,2.2-2.95,2.9,2.9,0,0,0-.57-1.77,3.131,3.131,0,0,0-1.64-1.11,23.916,23.916,0,0,0-5.22-.33h-1.98v6.5Z" fill="#606062"/>
  </g>
</svg>
