<svg xmlns="http://www.w3.org/2000/svg" width="1346.358" height="261.73" viewBox="0 0 1346.358 261.73">
  <g id="Engginno-text-green" transform="translate(-3457.87 -5946.799)">
    <path id="Path_11" data-name="Path 11" d="M4303.83,6037.09h62.35l-.25,87.21h3.68l60.54-87.21h36.19l-82.26,116.81h-61.85l.02-87.21h-3.86l-60.63,87.21h-36.19l82.26-116.81Zm-372.34,50.61h81.31c-1.22,1.87-1.95,2.95-2.09,3.15q-17.43,24.75-27.52,37.24-16.26,20.175-40.11,24.46a191.032,191.032,0,0,1-22.28,2.45c-8.04.43-19.94.63-35.79.63q-30.075,0-41.38-1.63c-7.56-1.07-12.63-3.24-15.17-6.47-1.77-2.22-2.29-5.08-1.59-8.56.66-3.47,2.71-8.08,6.02-13.78q4.605-7.965,21.14-31.46c7.5-10.65,13.47-18.71,17.82-24.1a137.483,137.483,0,0,1,13.56-14.54q14.61-13.53,33.03-16.43,20.16-3.165,57.35-3.15,22.05,0,34.09,1.1,12.06,1.095,18.51,3.68,10.515,4.155,3.5,18.07-3.435,6.87-11.92,19h-35.55a44.661,44.661,0,0,0,4.03-6.6,2.928,2.928,0,0,0-.09-2.89c-1-1.39-4.56-2.27-10.64-2.62-5.76-.33-14.28-.5-25.62-.5-12.29,0-21.29.3-26.96.85-5.67.58-10.02,1.63-13.02,3.15a34.723,34.723,0,0,0-9.43,7.79,229.553,229.553,0,0,0-14.08,18.54q-10.395,14.76-13.47,20.58c-2.04,3.89-2.69,6.63-1.83,8.2.83,1.55,2.69,2.48,5.58,2.77,2.89.33,12.48.59,28.84.82q24.33-.165,29.78-.46a38.933,38.933,0,0,0,9.45-1.58,17.36,17.36,0,0,0,6.17-3.62,43.967,43.967,0,0,0,6.41-7.56c.37-.53,1.13-1.6,2.31-3.24h-46.79l16.4-23.29Zm318.64-50.54h37.21l-82.16,116.65h-37.2l34.76-49.35,38.49-16.77h-26.68l35.59-50.53Zm468.83,28.65q-28.335,0-35.09,1.46a29.375,29.375,0,0,0-14.04,7.67q-6.255,5.955-18.71,23.67c-5.04,7.16-8.29,12.31-9.81,15.5-2.76,5.95-.86,9.35,5.74,10.22q7.215,1,30.17,1.02c14.3,0,24.02-.25,29.1-.76a37.1,37.1,0,0,0,12.93-3.44,33.12,33.12,0,0,0,9.18-7.07,151.613,151.613,0,0,0,11.88-15.29q8.88-12.615,12.19-18.5c2.19-3.94,3.26-6.92,3.17-8.91-.09-2.51-2.11-4.09-6.02-4.67q-5.88-.93-30.68-.91Zm21.24-30.29q37.8,0,50.67,1.87,18.5,2.745,11.4,19.41-4.935,11.475-24.13,38.73-19.26,27.36-30.51,38.85-16.365,16.635-38.74,19.41-15.51,1.89-52.94,1.86-38.145,0-51.02-1.86-18.51-2.76-11.4-19.41,4.935-11.475,24.68-39.52,18.78-26.67,29.96-38.07,16.365-16.635,38.74-19.41,15.42-1.89,53.29-1.87Zm-1282.33,173.01c65.68-44.15,67.46-55.84,160.43-55.84l25.06-35.52h-79.63l16.95-23.89h79.48l23.29-32.94h-79.48l16.26-22.82h79.22c8.43-11.84,55.86-78.88,64.3-90.72-76.9,53.44-64.51,55.2-159.79,55.2-35.54,50.23-110.54,156.3-146.08,206.53Zm1024.76-171.44h62.33l-.24,87.21h3.67l60.56-87.21h36.19l-82.26,116.81h-61.84l.01-87.21h-3.85l-60.64,87.21h-36.19l82.26-116.81Zm-765.22,0h62.33l-.24,87.21h3.67l60.54-87.21h36.2l-82.26,116.81H3735.8l.01-87.21h-3.85l-60.63,87.21h-36.19l82.26-116.81Zm380.46,50.61h116.61l-51.93,23.39q-7.56,10.275-12.98,17-16.26,20.175-40.11,24.46a191.275,191.275,0,0,1-22.28,2.45c-8.04.43-19.94.63-35.79.63-20.06,0-33.82-.55-41.37-1.63-7.57-1.07-12.64-3.24-15.17-6.47q-2.655-3.33-1.59-8.56c.66-3.47,2.71-8.08,6.02-13.78q4.605-7.965,21.14-31.46c7.5-10.65,13.47-18.71,17.83-24.1a136.5,136.5,0,0,1,13.57-14.54q14.595-13.53,33.02-16.43,20.175-3.165,57.35-3.15c14.71,0,26.06.37,34.11,1.1q12.045,1.095,18.51,3.68,10.5,4.155,3.5,18.07a171.248,171.248,0,0,1-11.92,19h-35.55a44.607,44.607,0,0,0,4.03-6.6,2.953,2.953,0,0,0-.09-2.89c-1-1.39-4.56-2.27-10.65-2.62-5.75-.33-14.26-.5-25.62-.5-12.29,0-21.28.3-26.96.85-5.66.58-10.02,1.63-13.01,3.15a34.723,34.723,0,0,0-9.43,7.79,229.072,229.072,0,0,0-14.09,18.54q-10.395,14.76-13.46,20.58c-2.04,3.89-2.69,6.63-1.84,8.2.83,1.55,2.69,2.48,5.57,2.77,2.89.33,12.49.59,28.85.82q24.33-.165,29.78-.46a38.94,38.94,0,0,0,9.46-1.58,17.447,17.447,0,0,0,6.17-3.62,43.969,43.969,0,0,0,6.4-7.56c.37-.53,1.13-1.6,2.31-3.24h-46.79l16.4-23.29Z" fill="#09884e" fill-rule="evenodd"/>
  </g>
</svg>
