<svg xmlns="http://www.w3.org/2000/svg" xmlns:xlink="http://www.w3.org/1999/xlink" width="500" height="500" viewBox="0 0 500 500">
  <defs>
    <linearGradient id="linear-gradient" x1="1" y1="0.5" x2="0" y2="0.5" gradientUnits="objectBoundingBox">
      <stop offset="0" stop-color="#4b4b4d"/>
      <stop offset="1" stop-color="#e6e7e8"/>
    </linearGradient>
    <linearGradient id="linear-gradient-2" y1="0.5" x2="1" y2="0.5" gradientUnits="objectBoundingBox">
      <stop offset="0" stop-color="#606062"/>
      <stop offset="1" stop-color="#e6e7e8"/>
    </linearGradient>
  </defs>
  <g id="favicon-icon_" data-name="favicon-icon " transform="translate(-3876.82 -5592.42)">
    <g id="_1506433752080" transform="translate(3876.82 5592.42)">
      <path id="Path_7" data-name="Path 7" d="M4126.81,5592.42a249.243,249.243,0,0,1,176.781,73.226q3.083,3.082,6.067,6.273c-7.542,5.261-15.035,10.62-22.509,15.979a222.011,222.011,0,0,0-160.33-68.151c-122.984,0-222.683,99.7-222.683,222.674a221.669,221.669,0,0,0,42.263,130.521l-16.569,23.421a250.009,250.009,0,0,1,197-403.943Zm196.989,96.047a250.007,250.007,0,0,1-373.771,330.727q-3.068-3.067-6.038-6.253c7.65-5.162,15.212-10.433,22.783-15.7a222.017,222.017,0,0,0,160.036,67.856c122.984,0,222.684-99.7,222.684-222.674a221.61,221.61,0,0,0-42.293-130.56q8.29-11.7,16.6-23.393Z" transform="translate(-3876.82 -5592.42)" fill="url(#linear-gradient)"/>
      <path id="Path_8" data-name="Path 8" d="M3937.3,6003.96c81.4-54.506,83.59-68.937,198.8-68.937l31.055-43.846h-98.673l21-29.494h98.5l28.854-40.66h-98.5l20.149-28.169h98.174c10.437-14.615,69.231-97.369,79.668-111.984-95.3,65.974-79.932,68.138-198.01,68.138-44.035,62.009-136.985,192.954-181.02,254.962Z" transform="translate(-3876.819 -5592.42)" fill="#09884e" fill-rule="evenodd"/>
      <path id="Path_9" data-name="Path 9" d="M4291.492,5677.745a232.9,232.9,0,0,0-351.265,304.062l9.782-13.818a216.847,216.847,0,0,1,330.139-278.88c.746.746,1.493,1.512,2.239,2.269q6.6-4.715,13.19-9.437c-1.335-1.414-2.7-2.8-4.076-4.184Zm-333.243,325.362q1.915,2.019,3.889,3.977a232.9,232.9,0,0,0,351.256-304.09L4303.6,5716.8a216.845,216.845,0,0,1-330.1,278.93c-.628-.639-1.267-1.277-1.9-1.916q-6.673,4.641-13.347,9.281Z" transform="translate(-3876.82 -5592.42)" fill="url(#linear-gradient-2)"/>
      <path id="Path_10" data-name="Path 10" d="M4362.57,5592.43a22.972,22.972,0,0,1,11.21,2.93,21.045,21.045,0,0,1,8.44,8.37,22.8,22.8,0,0,1,.06,22.75,21.62,21.62,0,0,1-8.39,8.39,22.792,22.792,0,0,1-22.64,0,21.644,21.644,0,0,1-8.4-8.39,22.8,22.8,0,0,1,.06-22.75,21.045,21.045,0,0,1,8.44-8.37,23.079,23.079,0,0,1,11.21-2.93Zm.02,4.5a18.527,18.527,0,0,0-8.99,2.34,17.046,17.046,0,0,0-6.78,6.72,18.237,18.237,0,0,0-.06,18.26,17.309,17.309,0,0,0,6.74,6.76,18.2,18.2,0,0,0,18.17,0,17.276,17.276,0,0,0,6.75-6.76,18.2,18.2,0,0,0-.05-18.26,16.864,16.864,0,0,0-6.78-6.72,18.677,18.677,0,0,0-9-2.34Zm-10.29,30.38v-24.06h4.88c4.57,0,7.15.02,7.7.06a9.478,9.478,0,0,1,3.78.96,6.025,6.025,0,0,1,2.25,2.31,6.768,6.768,0,0,1,.9,3.44,6.382,6.382,0,0,1-1.7,4.46,7.812,7.812,0,0,1-4.77,2.3,6.225,6.225,0,0,1,1.69.9,12.678,12.678,0,0,1,1.63,1.84c.18.24.77,1.22,1.78,2.94l2.82,4.85h-6.07l-2-3.92c-1.35-2.62-2.46-4.28-3.34-4.96a5.373,5.373,0,0,0-3.36-1.02h-1.27v9.9h-4.92Zm4.92-13.73h1.98a23.636,23.636,0,0,0,5.24-.33,3.036,3.036,0,0,0,2.2-2.95,2.9,2.9,0,0,0-.57-1.77,3.131,3.131,0,0,0-1.64-1.11,23.916,23.916,0,0,0-5.22-.33h-1.98v6.5Z" transform="translate(-3885.3 -5592.42)" fill="#606062"/>
    </g>
  </g>
</svg>
